# xmcd
#
# Track frame offsets: 
#        150
#        17750
#        33255
#        50467
#        69937
#        88682
#        102025
#        119602
#        136940
#        157462
#        167960
#
# Disc length: 2476 seconds
#
# Revision: 5
# Processed by: cddbd v1.5PL3 Copyright (c) Steve Scherf et al.
# Submitted via: ExactAudioCopy v0.90b4
#
DISCID=9209aa0b
DTITLE=Lorrie Morgan - My Heart
DYEAR=1999
DGENRE=Country
TTITLE0=The Things We Do
TTITLE1=Where Does That Leave Me
TTITLE2=I Did
TTITLE3=Strong Enough To Cry
TTITLE4=Maybe Not Tonight (Duet With Sammy Kershaw)
TTITLE5=Here I Go Again
TTITLE6=Between Midnight And Tomorrow
TTITLE7=The Only Thing That Looks Good On Me Is You
TTITLE8=Never Been Good At Letting Go
TTITLE9=My Heart
TTITLE10=On This Bed
EXTD=
EXTT0=
EXTT1=
EXTT2=
EXTT3=
EXTT4=
EXTT5=
EXTT6=
EXTT7=
EXTT8=
EXTT9=
EXTT10=
PLAYORDER=
